PathFileType	4	(X/Y/Z)	/Users/niels/Desktop/University/Third Semester/Perception and Action/Exam/Gymnastics Motion Tracking/Code for Gym Tracking/Analyzed Data/Webcam_Backflip/id6_4_baseline_Sports2D/id6_4_baseline_Sports2D_px_person00.trc
DataRate	CameraRate	NumFrames	NumMarkers	Units	OrigDataRate	OrigDataStartFrame	OrigNumFrames
29.81132075471698	29.81132075471698	9	22	m	29.81132075471698	79	159
Frame#	Time	Hip			RHip			RKnee			RAnkle			RBigToe			RSmallToe			RHeel			LHip			LKnee			LAnkle			LBigToe			LSmallToe			LHeel			Neck			Head			Nose			RShoulder			RElbow			RWrist			LShoulder			LElbow			LWrist		
		X1	Y1	Z1	X2	Y2	Z2	X3	Y3	Z3	X4	Y4	Z4	X5	Y5	Z5	X6	Y6	Z6	X7	Y7	Z7	X8	Y8	Z8	X9	Y9	Z9	X10	Y10	Z10	X11	Y11	Z11	X12	Y12	Z12	X13	Y13	Z13	X14	Y14	Z14	X15	Y15	Z15	X16	Y16	Z16	X17	Y17	Z17	X18	Y18	Z18	X19	Y19	Z19	X20	Y20	Z20	X21	Y21	Z21	X22	Y22	Z22
79	2.65	0.927867419462724	-0.40988964287697927	0.0	0.929538297760048	-0.409753790659228	0.0	0.9591290576317665	-0.5124053020266871	0.0	0.9520293055514385	-0.6148961926017164	0.0	0.9750960124916846	-0.6572236613828901	0.0	0.968331651834588	-0.6564198667592595	0.0	0.9438211163318448	-0.627879605437376	0.0	0.9264132018739015	-0.40812670918807165	0.0	0.9451530631034265	-0.5135891514604745	0.0	0.9388477249160291	-0.6112594043475602	0.0	0.9690756571587592	-0.6490886505587085	0.0	0.9607952109748861	-0.6440423327949752	0.0	0.9285963320945873	-0.6240657658612409	0.0	0.9230362165129571	-0.2838962091388857	0.0	0.9674012950541462	-0.222053866481324	0.0	0.9630173659055189	-0.26070446424293015	0.0	0.9169209862127857	-0.2899695088419657	0.0	0.8985644077003351	-0.3003381079956941	0.0	0.9014212461219563	-0.29315105545016534	0.0	0.9183910693516683	-0.2903441781160559	0.0	0.9213848799422121	-0.3141632151359386	0.0	0.9546974676562957	-0.3071316225228684	0.0
80	2.6835443037974684	0.9334548099385791	-0.42100353930339374	0.0	0.9346768003475295	-0.42037033801617635	0.0	0.9681626845848921	-0.5221786786782835	0.0	0.9613274985098693	-0.6244426011408671	0.0	0.9814820211190353	-0.6669421860999343	0.0	0.9757248402115162	-0.666119819730549	0.0	0.9535920716664967	-0.6380327606076264	0.0	0.9314502235908453	-0.41893488113270444	0.0	0.9482080200953273	-0.5250616363693366	0.0	0.940194509205353	-0.6226574594193434	0.0	0.9704197513305064	-0.6608432226208737	0.0	0.9612727676173605	-0.6561718807170915	0.0	0.9305847606234816	-0.6360508333134315	0.0	0.9263869696610049	-0.29564376661598796	0.0	0.9690905504840726	-0.23408163601664317	0.0	0.966563680630966	-0.2741111668391473	0.0	0.9178308315473871	-0.30352759342653335	0.0	0.8878533797501568	-0.32498782016048133	0.0	0.8809319066455508	-0.3340655172326163	0.0	0.9219052069888194	-0.30311303056352445	0.0	0.9191774035237613	-0.3350992236789031	0.0	0.9525304391144629	-0.348525393314008	0.0
81	2.7170886075949365	0.9386242862149368	-0.4365138708506775	0.0	0.9394208460484779	-0.4352594242962929	0.0	0.9778508358088503	-0.5351377462623337	0.0	0.9717616602052956	-0.6371850277880231	0.0	0.989440649063839	-0.6790020186395525	0.0	0.9848707914434346	-0.6782994425043725	0.0	0.9646148626142239	-0.6514830091522074	0.0	0.9361022686948702	-0.43400034346996474	0.0	0.9511989081545933	-0.5402633906818937	0.0	0.9413986115911477	-0.6382457138291855	0.0	0.9716133937358418	-0.6759574675873967	0.0	0.9619995952826904	-0.6715695516699812	0.0	0.932577590446266	-0.6522313797476983	0.0	0.9298133780256399	-0.31077686822108014	0.0	0.969995325186128	-0.24941718297930499	0.0	0.9689758692842682	-0.29009164550282984	0.0	0.9189372330074976	-0.32111599108185407	0.0	0.8815050027191033	-0.3539078088133841	0.0	0.8653339532234675	-0.3790554021444068	0.0	0.925545319443144	-0.3194079594888963	0.0	0.9192055505870144	-0.3584452876446008	0.0	0.9510899113586885	-0.39017391616899166	0.0
82	2.750632911392405	0.9432871608283858	-0.45673838862741056	0.0	0.9440087302805631	-0.45490730961682097	0.0	0.9877870725539908	-0.5515793224134466	0.0	0.9824492885993067	-0.6533710359761087	0.0	0.9986593960477569	-0.6935401172908773	0.0	0.9952225781118617	-0.6931073163101908	0.0	0.9758405306414029	-0.668499122325668	0.0	0.9401345431124584	-0.45378588722302515	0.0	0.9541345371192722	-0.5594426529364004	0.0	0.9427462297898194	-0.6579447414547948	0.0	0.9727397480396539	-0.6940419431517931	0.0	0.9628796309684806	-0.6898153602196505	0.0	0.9347403627852414	-0.6725713270081004	0.0	0.9330516129832199	-0.3296558697946746	0.0	0.9697645697889968	-0.2680393738284437	0.0	0.9699779434601807	-0.3085218213666975	0.0	0.9204635649777527	-0.34292068948335724	0.0	0.8810956742937507	-0.3866949404220924	0.0	0.8586291974980823	-0.4259101076108347	0.0	0.9287486714309178	-0.33956453704996026	0.0	0.9222692653152756	-0.3853431065105269	0.0	0.9506547228239935	-0.4301713187362194	0.0
83	2.784177215189873	0.9473833886837493	-0.4816471564679475	0.0	0.9485719904295837	-0.4794416195082229	0.0	0.9974952231258342	-0.5718250847023572	0.0	0.9923649644870031	-0.67327424639679	0.0	1.0083085256382276	-0.7106810400917726	0.0	1.005614811311651	-0.7107080080909252	0.0	0.9860849039997144	-0.6893549999812688	0.0	0.9433980777714561	-0.4784222133954009	0.0	0.9570306385764845	-0.5827106870223452	0.0	0.9442680771465591	-0.6815113008124327	0.0	0.9740489239814725	-0.7145958838016911	0.0	0.9638555089507842	-0.7104538894218744	0.0	0.93694976746866	-0.6967117964438078	0.0	0.9359097744783134	-0.3526362973560859	0.0	0.968496365853424	-0.2903353794312038	0.0	0.9699438253122327	-0.3299162677016111	0.0	0.92246275663122	-0.36884675239243103	0.0	0.8860107265248279	-0.42240038757080733	0.0	0.861611479370584	-0.47247718575043207	0.0	0.9311364120564793	-0.3638459553722408	0.0	0.9277653328576932	-0.4159877925549302	0.0	0.9519260278943772	-0.46786206580196205	0.0
84	2.8177215189873417	0.95087478791255	-0.510688194837706	0.0	0.9530423278288652	-0.5084139639929741	0.0	1.0063838971239514	-0.5959636279952275	0.0	1.0005399904432173	-0.696921774613244	0.0	1.01720514792493	-0.7303660843377509	0.0	1.0145169805812986	-0.7310444309456506	0.0	0.9942789600505917	-0.713876300545944	0.0	0.9459308045407092	-0.5075022015431199	0.0	0.9597958293227132	-0.609765998431775	0.0	0.9455836836360828	-0.7083019708402026	0.0	0.9755343831843254	-0.7369843113466802	0.0	0.9648361909158609	-0.7328504251849686	0.0	0.9386447560602199	-0.723697532479959	0.0	0.9383131801931825	-0.37959840611211376	0.0	0.966483211787891	-0.31649139909260776	0.0	0.9695290763732005	-0.35477773427821335	0.0	0.9248913556221537	-0.39833648889881	0.0	0.8947321775135982	-0.45977301435405504	0.0	0.8727114041160845	-0.5172716488672315	0.0	0.9327022886512797	-0.39204701713045836	0.0	0.9345438152403863	-0.4496951601761395	0.0	0.9557365354513594	-0.503256038532982	0.0
85	2.85126582278481	0.953726611204704	-0.5426536354222439	0.0	0.9572041756354339	-0.5406558486308899	0.0	1.0137655729719532	-0.6235259829483897	0.0	1.006162808813902	-0.7236986311622926	0.0	1.0241868068824547	-0.7521611277631663	0.0	1.0205744704403836	-0.7536128151786676	0.0	0.9995871079876191	-0.7410570145944197	0.0	0.9478794382973471	-0.5398984071680276	0.0	0.9621452620125847	-0.6395814038990112	0.0	0.946067750375476	-0.7369900584161058	0.0	0.9768340473887858	-0.7603392213717151	0.0	0.9657134234182683	-0.7560597727789572	0.0	0.9391065583474272	-0.751881353646324	0.0	0.9403097907287843	-0.4095959738675956	0.0	0.9640987904047594	-0.34583696657120266	0.0	0.9693335226486074	-0.3828182428285222	0.0	0.9276833916881861	-0.43023328074481293	0.0	0.9056326666504412	-0.4973028478995661	0.0	0.8893025884530251	-0.5593167773042382	0.0	0.9338616098467108	-0.4232186489005158	0.0	0.9416775346065197	-0.4851412489586679	0.0	0.9624212043902978	-0.5366753584496469	0.0
86	2.8848101265822783	0.9558552792110918	-0.575568141729243	0.0	0.9607318021927127	-0.574111232426367	0.0	1.0189722442633065	-0.6532068152371451	0.0	1.0087768318315056	-0.7521181483472111	0.0	1.0285256085199572	-0.7750843050574618	0.0	1.0231974976953266	-0.7773116269344471	0.0	1.001613369076779	-0.7690365937285627	0.0	0.9493342684711523	-0.5735524686864297	0.0	0.96373534475683	-0.6702110149247507	0.0	0.9453182791808856	-0.7655871210803101	0.0	0.977565647772729	-0.7836421470681265	0.0	0.9664178683269371	-0.7789886233197387	0.0	0.9380241415539218	-0.7792447354574371	0.0	0.9419948770697478	-0.4407937228959282	0.0	0.9617251368148122	-0.3765582854146706	0.0	0.9696252755319984	-0.4125512189943115	0.0	0.930713405051083	-0.4627399137948595	0.0	0.9171952554972004	-0.5331451806801633	0.0	0.9084739661437771	-0.5975756222568	0.0	0.9351822236403006	-0.45559787178013467	0.0	0.948540697570924	-0.520396724031612	0.0	0.9713137458255632	-0.5681337268463184	0.0
87	2.918354430379747	0.9571045814596875	-0.6067054108368343	0.0	0.9631488266442114	-0.6058658358353172	0.0	1.0215723859290493	-0.6827456178860125	0.0	1.0085899971514698	-0.7799438086913159	0.0	1.030295028811923	-0.7975447786438623	0.0	1.0228884327493422	-0.8004363735116574	0.0	1.0007260661679522	-0.7954854947694235	0.0	0.9502712814253074	-0.6054734878164391	0.0	0.9644687068597002	-0.6989791074337215	0.0	0.9435370338145413	-0.7917752202370885	0.0	0.9776607142284363	-0.8056862940179944	0.0	0.9669605566270394	-0.8004520238754459	0.0	0.9357953132634936	-0.8038196829827419	0.0	0.9434228984753144	-0.47064291860100627	0.0	0.9596865292026299	-0.40601706659521447	0.0	0.9703367895654701	-0.44148321815737873	0.0	0.9337283431569858	-0.4934749444556885	0.0	0.9281092676464466	-0.5651318118074042	0.0	0.9275141758700176	-0.6305167536056182	0.0	0.9369946981344441	-0.4866715946391549	0.0	0.9545994339788635	-0.5529818501337239	0.0	0.9807839688628108	-0.5969191085089053	0.0
